<svg width="1500" height="256" viewBox="0 0 1500 256" fill="none" xmlns="http://www.w3.org/2000/svg">
<path d="M1500 6H0V256H1500V6Z" fill="#FFEAE3"/>
<path d="M0 222L35.7 214.523C71.3 207.047 142.7 192.093 214.2 176.565C285.7 161.036 350 163.337 421.5 167.363C493 171.389 550.7 179.21 622 189.218C693.3 199.11 785.7 192.898 857 194.624C928.3 196.349 999.7 203.941 1071.2 199.915C1142.7 195.889 1214.3 180.246 1285.8 181.971C1357.3 183.696 1428.7 202.791 1464.3 212.453L1500 222V0H1464.3C1428.7 0 1357.3 0 1285.8 0C1214.3 0 1142.7 0 1071.2 0C999.7 0 928.3 0 857 0C785.7 0 714.3 0 643 0C571.7 0 500.3 0 428.8 0C357.3 0 285.7 0 214.2 0C142.7 0 71.3 0 35.7 0H0V222Z" fill="#121481"/>
</svg>
