<svg width="780" height="163" viewBox="0 0 780 163" fill="none" xmlns="http://www.w3.org/2000/svg">
<rect y="50" width="780" height="113" fill="#FFEAE3"/>
<path d="M0 129.75L10.9032 132C21.8065 134.25 43.6129 138.75 65.4194 138.9C87.2258 138.975 109.032 134.775 130.839 132.975C152.645 131.25 174.452 132 196.258 131.4C218.065 130.725 239.871 128.775 261.677 130.725C283.484 132.75 305.29 138.75 327.097 142.125C348.903 145.5 370.71 146.25 381.613 146.625L392.516 147V0H381.613C370.71 0 348.903 0 327.097 0C305.29 0 283.484 0 261.677 0C239.871 0 218.065 0 196.258 0C174.452 0 152.645 0 130.839 0C109.032 0 87.2258 0 65.4194 0C43.6129 0 21.8065 0 10.9032 0H0V129.75Z" fill="#121481"/>
<path d="M780 129.75L769.097 132C758.194 134.25 736.387 138.75 714.581 138.9C692.774 138.975 670.968 134.775 649.161 132.975C627.355 131.25 605.548 132 583.742 131.4C561.935 130.725 540.129 128.775 518.323 130.725C496.516 132.75 474.71 138.75 452.903 142.125C431.097 145.5 409.29 146.25 398.387 146.625L387.484 147V0H398.387C409.29 0 431.097 0 452.903 0C474.71 0 496.516 0 518.323 0C540.129 0 561.935 0 583.742 0C605.548 0 627.355 0 649.161 0C670.968 0 692.774 0 714.581 0C736.387 0 758.194 0 769.097 0H780V129.75Z" fill="#121481"/>
</svg>
